# xmcd CD database file
#
# Track frame offsets:
#	150
#	19500
#	40650
#	62025
#	82575
#	93750
#	117300
#	138450
#	163125
#	180525
#	201000
#	217875
#
# Disc length: 3111 seconds
#
# Revision: 1
# Processed by: cddbd v1.5.1PL0 Copyright (c) Steve Scherf et al.
# Submitted via: freeDBTagger 0.5
#
DISCID=900c250c
DTITLE=長谷川きよし - あるばむ７
DYEAR=1900
DGENRE=folk
TTITLE0=ダンサー
TTITLE1=ひこうき雲
TTITLE2=愛は歌の中に
TTITLE3=歩きつづけて
TTITLE4=ビアーナへ行こう
TTITLE5=さらば夏の光
TTITLE6=異国の人
TTITLE7=灰色の瞳（デュエット：加藤登紀子）
TTITLE8=あの娘の忘れもの
TTITLE9=裸馬
TTITLE10=心ノ中ノ日本
TTITLE11=あの娘の忘れもの
EXTD=
EXTT0=
EXTT1=
EXTT2=
EXTT3=
EXTT4=
EXTT5=
EXTT6=
EXTT7=
EXTT8=
EXTT9=
EXTT10=
EXTT11=
PLAYORDER=
